<svg xmlns="http://www.w3.org/2000/svg" xmlns:xlink="http://www.w3.org/1999/xlink" preserveAspectRatio="xMidYMid meet" width="450" height="450" viewBox="0 0 450 450" style="width:100%;height:100%"><defs><clipPath id="_R_G_L_1_C_0"><path id="_R_G_L_1_C_0_P_0" fill-rule="nonzero" d="M0 0 C0,0 0,450 0,450 C0,450 450,450 450,450 C450,450 450,0 450,0 C450,0 0,0 0,0z "/></clipPath><animate repeatCount="indefinite" dur="2.8666667s" begin="0s" xlink:href="#_R_G_L_1_G_G_0_L_0_G" fill="freeze" attributeName="opacity" from="1" to="1" keyTimes="0;0.9651163;1" values="1;1;1" keySplines="0.167 0.167 0.833 0.833;0 0 0 0" calcMode="spline"/><animateMotion repeatCount="indefinite" dur="2.8666667s" begin="0s" xlink:href="#_R_G_L_1_G" fill="freeze" keyTimes="0;0.0813953;0.1744186;0.255814;0.3372093;0.4302326;0.5116279;0.5930233;0.6860465;0.7674419;0.8488372;0.9418605;1" path="M225 225 C225,225 225,222 225,222 C225,222 225,225 225,225 C225,225 225,225 225,225 C225,225 225,222 225,222 C225,222 225,225 225,225 C225,225 225,225 225,225 C225,225 225,222 225,222 C225,222 225,225 225,225 C225,225 225,225 225,225 C225,225 225,222 225,222 C225,222 225,225 225,225 C225,225 225,225 225,225 " keyPoints="0;0.13;0.25;0.25;0.38;0.5;0.5;0.63;0.75;0.75;0.88;1;1" keySplines="0.167 0.167 0.833 0.833;0.167 0.167 0.833 0.833;0.167 0.167 0.833 0.833;0.167 0.167 0.833 0.833;0.167 0.167 0.833 0.833;0.167 0.167 0.833 0.833;0.167 0.167 0.833 0.833;0.167 0.167 0.833 0.833;0.167 0.167 0.833 0.833;0.167 0.167 0.833 0.833;0.167 0.167 0.833 0.833;0 0 0 0" calcMode="spline"/><animateTransform repeatCount="indefinite" dur="2.8666667s" begin="0s" xlink:href="#_R_G_L_1_G" fill="freeze" attributeName="transform" from="-225 -225" to="-225 -225" type="translate" additive="sum" keyTimes="0;1" values="-225 -225;-225 -225" keySplines="0 0 1 1" calcMode="spline"/><animateTransform repeatCount="indefinite" dur="2.8666667s" begin="0s" xlink:href="#_R_G_L_0_G_L_1_G" fill="freeze" attributeName="transform" from="0" to="0" type="rotate" additive="sum" keyTimes="0;1" values="0;0" keySplines="0 0 0 0" calcMode="spline"/><animateTransform repeatCount="indefinite" dur="2.8666667s" begin="0s" xlink:href="#_R_G_L_0_G_L_1_G" fill="freeze" attributeName="transform" from="-349.334 -228.992" to="-349.334 -228.992" type="translate" additive="sum" keyTimes="0;1" values="-349.334 -228.992;-349.334 -228.992" keySplines="0 0 1 1" calcMode="spline"/><animateTransform repeatCount="indefinite" dur="2.8666667s" begin="0s" xlink:href="#_R_G_L_0_G_L_0_G" fill="freeze" attributeName="transform" from="0" to="0" type="rotate" additive="sum" keyTimes="0;1" values="0;0" keySplines="0 0 0 0" calcMode="spline"/><animateTransform repeatCount="indefinite" dur="2.8666667s" begin="0s" xlink:href="#_R_G_L_0_G_L_0_G" fill="freeze" attributeName="transform" from="-128.713 -229.264" to="-128.713 -229.264" type="translate" additive="sum" keyTimes="0;1" values="-128.713 -229.264;-128.713 -229.264" keySplines="0 0 1 1" calcMode="spline"/><animate attributeType="XML" attributeName="opacity" dur="3s" from="0" to="1" xlink:href="#time_group"/></defs><g id="_R_G"><g id="_R_G_L_1_G"><g clip-path="url(#_R_G_L_1_C_0)"><g id="_R_G_L_1_G_G_0_L_1_G"><path id="_R_G_L_1_G_G_0_L_1_G_D_0_P_0" fill="#919191" fill-opacity="1" fill-rule="nonzero" d=" M294.11 216.63 C294.11,216.63 103.3,216.63 103.3,216.63 C103.3,216.63 103.3,62.36 103.3,62.36 C103.3,62.36 294.11,62.36 294.11,62.36 C294.11,62.36 294.11,216.63 294.11,216.63z "/><path id="_R_G_L_1_G_G_0_L_1_G_D_1_P_0" fill="#e69917" fill-opacity="1" fill-rule="nonzero" d=" M368.91 190.17 C368.91,190.17 363.45,190.17 363.45,190.17 C363.45,190.17 363.45,184.1 363.45,184.1 C363.45,184.1 368.91,184.1 368.91,184.1 C368.91,184.1 368.91,190.17 368.91,190.17z "/><path id="_R_G_L_1_G_G_0_L_1_G_D_2_P_0" fill="#1b1c20" fill-opacity="1" fill-rule="nonzero" d=" M304.46 137.86 C304.46,137.86 286.58,141.12 286.58,141.12 C285.3,141.35 284.08,140.5 283.84,139.22 C283.84,139.22 283.8,138.99 283.8,138.99 C283.57,137.71 284.41,136.48 285.69,136.25 C285.69,136.25 303.57,132.99 303.57,132.99 C303.57,132.99 304.46,137.86 304.46,137.86z "/><path id="_R_G_L_1_G_G_0_L_1_G_D_3_P_0" fill="#edeeef" fill-opacity="1" fill-rule="nonzero" d=" M350.48 229.52 C350.48,229.52 349.96,229.82 349.96,229.82 C349.07,230.35 347.92,230.05 347.39,229.16 C347.39,229.16 335.57,209.06 335.57,209.06 C335.57,209.06 339.32,206.86 339.32,206.86 C339.32,206.86 351.14,226.95 351.14,226.95 C351.67,227.84 351.37,228.99 350.48,229.52z "/><path id="_R_G_L_1_G_G_0_L_1_G_D_4_P_0" fill="#feb329" fill-opacity="1" fill-rule="nonzero" d=" M345.18 214.72 C345.18,214.72 339.6,218 339.6,218 C339.6,218 298.46,148.19 298.46,148.19 C298.46,148.19 304.04,144.92 304.04,144.92 C304.04,144.92 345.18,214.72 345.18,214.72z "/><path id="_R_G_L_1_G_G_0_L_1_G_D_5_P_0" fill="#73844a" fill-opacity="1" fill-rule="nonzero" d=" M336.4 180.3 C314.23,180.3 309.55,207.52 309.55,224.29 C309.65,224.4 309.71,224.46 309.81,224.56 C309.81,224.56 318.12,224.56 318.12,224.56 C320.82,224.56 323.19,222.67 323.68,220.02 C325.75,208.66 335.35,201.83 347.23,201.83 C347.23,201.83 377.64,201.83 377.64,201.83 C377.64,201.83 377.64,198.55 377.64,198.55 C374.09,192.31 361.58,180.3 336.4,180.3z "/><path id="_R_G_L_1_G_G_0_L_1_G_D_6_P_0" fill="#ffffff" fill-opacity="1" fill-rule="nonzero" d=" M321.09 217.61 C320.59,220.38 318.1,221.4 315.27,221.4 C315.27,221.4 309.59,221.4 309.59,221.4 C309.57,222.36 309.55,223.33 309.55,224.29 C309.65,224.4 309.71,224.46 309.81,224.56 C309.81,224.56 318.12,224.56 318.12,224.56 C320.82,224.56 323.19,222.67 323.68,220.02 C325.75,208.66 335.35,201.83 347.23,201.83 C347.23,201.83 377.64,201.83 377.64,201.83 C377.64,201.83 377.64,198.55 377.64,198.55 C377.64,198.55 345.77,198.55 345.77,198.55 C333.33,198.55 323.27,205.71 321.09,217.61z "/><path id="_R_G_L_1_G_G_0_L_1_G_D_7_P_0" fill="#e69917" fill-opacity="1" fill-rule="nonzero" d=" M339.84 161.37 C339.84,161.37 326.77,161.37 326.77,161.37 C326.77,161.37 326.77,143.85 326.77,143.85 C326.77,143.85 339.84,143.85 339.84,143.85 C339.84,143.85 339.84,161.37 339.84,161.37z "/><path id="_R_G_L_1_G_G_0_L_1_G_D_8_P_0" fill="#1b1c20" fill-opacity="1" fill-rule="nonzero" d=" M340.77 162.34 C340.77,162.34 341.82,162.34 341.82,162.34 C343.23,162.34 344.38,161.19 344.38,159.78 C344.38,159.78 344.38,145.44 344.38,145.44 C344.38,144.03 343.23,142.89 341.82,142.89 C341.82,142.89 340.77,142.89 340.77,142.89 C340.25,142.89 339.84,143.3 339.84,143.82 C339.84,143.82 339.84,161.41 339.84,161.41 C339.84,161.92 340.25,162.34 340.77,162.34z "/><path id="_R_G_L_1_G_G_0_L_1_G_D_9_P_0" fill="#1b1c20" fill-opacity="1" fill-rule="nonzero" d=" M163.42 173.93 C163.42,173.93 104.18,173.93 104.18,173.93 C104.18,173.93 104.18,160.33 104.18,160.33 C104.18,160.33 163.42,160.33 163.42,160.33 C166.38,160.33 168.77,162.72 168.77,165.68 C168.77,165.68 168.77,168.59 168.77,168.59 C168.77,171.54 166.38,173.93 163.42,173.93z "/><path id="_R_G_L_1_G_G_0_L_1_G_D_10_P_0" fill="#1b1c20" fill-opacity="1" fill-rule="nonzero" d=" M105.79 104.46 C105.79,104.46 119.5,167.05 119.5,167.05 C119.5,167.05 106.21,169.96 106.21,169.96 C106.21,169.96 92.5,107.37 92.5,107.37 C91.87,104.49 93.7,101.64 96.58,101 C96.58,101 99.42,100.38 99.42,100.38 C102.31,99.75 105.16,101.58 105.79,104.46z "/><path id="_R_G_L_1_G_G_0_L_1_G_D_11_P_0" fill="#1b1c20" fill-opacity="1" fill-rule="nonzero" d=" M288.17 234.9 C288.17,234.9 252.33,234.9 252.33,234.9 C247.09,234.9 241.86,234.17 236.82,232.73 C236.82,232.73 224.03,229.08 224.03,229.08 C224.03,229.08 224.03,216.96 224.03,216.96 C224.03,216.96 303.79,216.96 303.79,216.96 C303.79,216.96 303.79,219.28 303.79,219.28 C303.79,227.91 296.8,234.9 288.17,234.9z "/><path id="_R_G_L_1_G_G_0_L_1_G_D_12_P_0" fill="#1b1c20" fill-opacity="1" fill-rule="nonzero" d=" M143.16 228.86 C143.16,228.86 294.26,228.86 294.26,228.86 C295.85,228.86 297.14,227.57 297.14,225.98 C297.14,225.98 297.14,224.83 297.14,224.83 C297.14,224.83 143.16,224.83 143.16,224.83 C143.16,224.83 143.16,228.86 143.16,228.86z "/><path id="_R_G_L_1_G_G_0_L_1_G_D_13_P_0" fill="#000000" fill-opacity="1" fill-rule="nonzero" d=" M126.48 234.66 C125.87,234.66 125.37,234.16 125.37,233.54 C125.37,232.93 125.87,232.43 126.48,232.43 C126.48,232.43 145.7,232.43 145.7,232.43 C145.93,232.42 174.47,231 189.5,226.52 C190.08,226.34 190.71,226.68 190.88,227.27 C191.06,227.86 190.72,228.48 190.13,228.66 C174.85,233.22 146.93,234.6 145.75,234.66 C145.75,234.66 126.48,234.66 126.48,234.66z "/><path id="_R_G_L_1_G_G_0_L_1_G_D_14_P_0" fill="#000000" fill-opacity="1" fill-rule="nonzero" d=" M126.48 237.23 C125.87,237.23 125.37,236.73 125.37,236.11 C125.37,235.5 125.87,235 126.48,235 C126.48,235 145.7,235 145.7,235 C145.83,234.99 164.25,234.08 179.24,231.42 C179.85,231.31 180.43,231.72 180.53,232.32 C180.64,232.93 180.24,233.51 179.63,233.62 C164.5,236.31 145.94,237.22 145.75,237.23 C145.75,237.23 126.48,237.23 126.48,237.23z "/><path id="_R_G_L_1_G_G_0_L_1_G_D_15_P_0" fill="#000000" fill-opacity="1" fill-rule="nonzero" d=" M176.05 234.78 C176.05,234.78 174.16,235.01 174.16,235.01 C174.16,235.01 173.45,229.3 173.45,229.3 C173.45,229.3 175.34,229.06 175.34,229.06 C175.34,229.06 176.05,234.78 176.05,234.78z "/><path id="_R_G_L_1_G_G_0_L_1_G_D_16_P_0" fill="#000000" fill-opacity="1" fill-rule="nonzero" d=" M150.64 233.63 C150.64,233.63 131.43,233.63 131.43,233.63 C130.19,233.57 102.27,232.18 86.99,227.62 C86.4,227.45 86.06,226.83 86.24,226.24 C86.42,225.65 87.04,225.31 87.63,225.49 C102.65,229.97 131.2,231.38 131.48,231.4 C131.48,231.4 150.64,231.4 150.64,231.4 C151.26,231.4 151.76,231.89 151.76,232.51 C151.76,233.13 151.26,233.63 150.64,233.63z "/><path id="_R_G_L_1_G_G_0_L_1_G_D_17_P_0" fill="#000000" fill-opacity="1" fill-rule="nonzero" d=" M87.76 229.35 C87.76,229.35 91.46,229.35 91.46,229.35 C91.46,229.35 91.46,224.9 91.46,224.9 C91.46,224.9 87.76,224.9 87.76,224.9 C87.76,224.9 87.76,229.35 87.76,229.35z "/><path id="_R_G_L_1_G_G_0_L_1_G_D_18_P_0" fill="#e69917" fill-opacity="1" fill-rule="nonzero" d=" M303.83 192.85 C303.83,192.85 297.05,192.85 297.05,192.85 C292.54,192.85 288.22,194.16 285.02,196.48 C285.02,196.48 263.41,212.16 263.41,212.16 C263.41,212.16 263.41,221.66 263.41,221.66 C263.41,221.66 303.83,221.66 303.83,221.66 C303.83,221.66 303.83,192.85 303.83,192.85z "/><path id="_R_G_L_1_G_G_0_L_1_G_D_19_P_0" fill="#e69917" fill-opacity="1" fill-rule="nonzero" d=" M263.68 217.97 C263.68,217.97 226.37,217.97 226.37,217.97 C226.37,217.97 226.37,176.64 226.37,176.64 C226.37,176.64 263.68,176.64 263.68,176.64 C263.68,176.64 263.68,217.97 263.68,217.97z "/><path id="_R_G_L_1_G_G_0_L_1_G_D_20_P_0" fill="#1b1c20" fill-opacity="1" fill-rule="nonzero" d=" M263.68 189.75 C263.68,189.75 226.37,189.75 226.37,189.75 C226.37,189.75 226.37,186.76 226.37,186.76 C226.37,186.76 263.68,186.76 263.68,186.76 C263.68,186.76 263.68,189.75 263.68,189.75z "/><path id="_R_G_L_1_G_G_0_L_1_G_D_21_P_0" fill="#e69917" fill-opacity="1" fill-rule="nonzero" d=" M170.84 218.07 C170.84,218.07 226.33,218.07 226.33,218.07 C226.33,218.07 226.33,208.2 226.33,208.2 C226.33,208.2 170.84,208.2 170.84,208.2 C170.84,208.2 170.84,218.07 170.84,218.07z "/><path id="_R_G_L_1_G_G_0_L_1_G_D_22_P_0" fill="#1b1c20" fill-opacity="1" fill-rule="nonzero" d=" M233.64 168.12 C233.64,168.12 228.88,133.39 228.88,133.39 C228.59,131.25 226.76,129.66 224.61,129.66 C224.61,129.66 222.08,129.66 222.08,129.66 C219.27,129.66 217.1,132.14 217.48,134.93 C217.48,134.93 223.93,181.95 223.93,181.95 C223.93,181.95 235.54,181.95 235.54,181.95 C235.54,181.95 269.54,181.95 269.54,181.95 C270.88,181.95 271.96,180.86 271.96,179.53 C271.96,179.53 271.96,173.59 271.96,173.59 C271.96,172.52 271.09,171.65 270.02,171.65 C270.02,171.65 237.68,171.65 237.68,171.65 C235.65,171.65 233.92,170.14 233.64,168.12z "/><path id="_R_G_L_1_G_G_0_L_1_G_D_23_P_0" fill="#ffffff" fill-opacity="1" fill-rule="nonzero" d=" M131.05 83.65 C130.57,83.64 130.07,83.59 129.62,83.42 C129.17,83.24 128.75,82.92 128.54,82.48 C130.08,82.37 132.93,82.42 132.93,82.42 C132.93,82.42 133.11,83.51 133.11,83.51 C133.11,83.51 131.84,83.67 131.05,83.65z "/><path id="_R_G_L_1_G_G_0_L_1_G_D_24_P_0" fill="#fcb681" fill-opacity="1" fill-rule="nonzero" d=" M112.6 74.03 C112.34,71.8 114.01,69.88 116.1,70.21 C116.59,70.29 117.04,70.5 117.43,70.82 C118.49,68.28 119.99,66.79 121.76,66.11 C125.24,64.78 131.92,66.81 131.92,66.81 C131.92,66.81 133.56,70.95 133.41,71.95 C133.26,72.96 132.21,73.49 132.75,74.51 C133.51,75.95 135.06,78.61 135.06,78.61 C135.87,79.67 135.71,80.46 135.28,80.82 C135.01,81.04 134.3,81.18 133.43,81.15 C133.04,81.47 133.27,82.9 133.27,82.9 C133.27,82.9 130.25,83.2 128.88,82.81 C129.41,84.69 132.82,84.85 132.82,84.85 C132.82,84.85 133.06,88.77 129.32,88.84 C128.15,88.87 126.72,88.86 125.38,88.96 C125.38,88.96 123.73,96.06 123.73,96.06 C123.73,96.06 111.53,94.25 111.53,94.25 C111.53,94.25 113.94,81.78 113.94,81.78 C113.61,79.3 112.81,75.87 112.6,74.03z "/><path id="_R_G_L_1_G_G_0_L_1_G_D_25_P_0" fill="#ffffff" fill-opacity="1" fill-rule="nonzero" d=" M131.03 73.07 C131.03,73.07 130.58,72.73 129.18,73.21 C128.36,73.49 128.16,73.66 127.48,73.93 C127.15,74.05 128.43,75.18 130.57,75.1 C131.14,75.08 131.42,73.83 131.03,73.07z "/><path id="_R_G_L_1_G_G_0_L_1_G_D_26_P_0" fill="#4e6984" fill-opacity="1" fill-rule="nonzero" d=" M129.85 73.62 C129.87,73.38 129.96,73.17 130.06,72.99 C130.78,72.88 131.03,73.07 131.03,73.07 C131.33,73.65 131.23,74.5 130.93,74.89 C130.81,74.96 130.68,75 130.55,74.98 C130.08,74.93 129.77,74.32 129.85,73.62z "/><path id="_R_G_L_1_G_G_0_L_1_G_D_27_P_0" fill="#a55f38" fill-opacity="1" fill-rule="nonzero" d=" M133.48 71.02 C133.48,71.02 133.75,71.45 133.49,71.94 C133.32,72.26 132.28,72.01 131.66,72 C130.37,71.99 130.01,71.96 129.35,72.16 C128.69,72.36 128.67,71.74 129.7,71.41 C130.5,71.14 130.86,71 131.78,70.93 C132.66,70.86 133.29,70.9 133.48,71.02z "/><path id="_R_G_L_1_G_G_0_L_1_G_D_28_P_0" fill="#a55f38" fill-opacity="1" fill-rule="nonzero" d=" M116.13 58.58 C122.62,56.88 126.85,57.99 128.26,58.53 C131.45,59.75 132.81,62.59 132.9,63.84 C133.07,66.19 132.52,66.99 132.08,67.24 C130.37,68.18 127.5,67.89 124.14,67.7 C123.72,68.04 122.44,70.13 121.78,71.26 C121.57,71.61 121.62,73.28 121.42,75.58 C121.33,76.59 119.74,76.47 119.71,75.98 C119.51,73.07 119.1,72.07 118.58,71.69 C117.55,70.94 115.58,71.46 115.49,73.21 C115.35,76.14 115.49,78.59 114.37,81.43 C114.31,81.57 113.73,82.01 113.64,80.94 C113.63,80.83 113.39,79.96 112.95,78.83 C112.51,77.71 111.38,76.83 110.55,74.97 C106.72,66.41 109.62,60.29 116.13,58.58z "/><path id="_R_G_L_1_G_G_0_L_1_G_D_29_P_0" fill="#f7a872" fill-opacity="1" fill-rule="nonzero" d=" M146.59 166.19 C146.59,166.19 148.5,146.7 148.5,146.7 C148.5,146.7 137.3,145.73 137.08,144.55 C132.29,123 137.14,121.94 131.98,105.6 C129.38,97.37 128.31,96.58 120.3,89.45 C116.36,85.95 106.41,91.97 106.97,103.61 C107.73,119.32 113.29,143.75 114.11,151.54 C115.42,163.9 121.79,164.77 128.05,166.19 C133.94,167.52 145.88,166.34 146.59,166.19z "/><path id="_R_G_L_1_G_G_0_L_1_G_D_30_P_0" fill="#f7a872" fill-opacity="1" fill-rule="nonzero" d=" M197.29 213.08 C203.01,212.87 205.33,211.26 205.4,209.61 C205.49,207.6 200.52,208.45 193.44,205.7 C192.13,205.2 190.12,204.73 188.16,204.26 C187.04,203.99 186.23,203.11 186.08,201.97 C184.15,187.92 185.46,174.99 184.06,164.06 C183.71,161.26 184.56,156.13 182.23,154.54 C179.16,152.46 162.82,148.03 135.12,147.08 C135.12,147.08 132.05,167.19 132.05,167.19 C141.24,168.3 159.56,169.11 168.95,166.25 C167.34,179.85 173.42,183.79 175.15,200.01 C175.71,205.28 175.39,206.55 175.36,210.24 C175.33,214.38 178.62,213.08 184.93,212.56 C192.43,211.93 191.56,213.3 197.29,213.08z "/><path id="_R_G_L_1_G_G_0_L_1_G_D_31_P_0" fill="#d8dadc" fill-opacity="1" fill-rule="nonzero" d=" M185.71 201 C184.96,201.53 186.25,204.61 182.51,205.42 C176.41,206.73 175.09,203.43 175.13,205.76 C175.04,207.17 174.26,208.28 174.32,211.27 C174.33,211.69 174.18,213.13 174.18,213.13 C174.18,213.13 177.34,213.44 181.37,213.44 C184.37,213.44 186.81,212.92 190.58,213.33 C194.34,213.75 202.96,212.72 204.13,212.51 C205.29,212.3 205.84,210.9 205.82,210.33 C205.72,209.26 205.93,208.33 204.57,207.6 C204.02,207.31 200.27,206.66 196.74,205.69 C189.34,203.67 186.46,200.46 185.71,201z "/><path id="_R_G_L_1_G_G_0_L_1_G_D_32_P_0" fill="#fcb681" fill-opacity="1" fill-rule="nonzero" d=" M205.94 213.08 C211.78,212.86 213.9,211.21 213.72,209.51 C213.51,207.46 208.53,208.32 200.86,205.51 C199.44,204.99 197.3,204.51 195.22,204.02 C194.03,203.75 193.07,202.85 192.73,201.68 C188.59,187.28 187.93,174.02 184.82,162.82 C184.02,159.94 184.11,154.68 181.47,153.06 C178.01,150.93 160.57,146.38 132.02,145.41 C132.02,145.41 132.08,166.7 132.08,166.7 C141.68,167.84 160.58,168.67 169.76,165.74 C170.21,179.67 176.95,183.04 181.22,199.67 C182.61,205.08 182.48,206.37 183.02,210.16 C183.63,214.4 186.81,213.08 193.18,212.54 C200.78,211.89 200.1,213.29 205.94,213.08z "/><path id="_R_G_L_1_G_G_0_L_1_G_D_33_P_0" fill="#c4001d" fill-opacity="1" fill-rule="nonzero" d=" M122.78 165.71 C115.19,163.32 114.13,155.87 114.13,155.87 C114.13,155.87 132.02,145.41 132.02,145.41 C160.89,146.16 165.94,148.21 173.13,149.56 C176.06,150.11 178.4,150.81 181.86,152.94 C184.5,154.56 186.74,164.74 187.42,170.36 C185.39,173.61 175.45,176.08 170.09,176.52 C168.07,172.3 168.15,169.48 165.43,167.64 C152.15,169.48 133.06,168.96 122.78,165.71z "/><path id="_R_G_L_1_G_G_0_L_1_G_D_34_P_0" fill="#4fac25" fill-opacity="1" fill-rule="nonzero" d=" M111.53 90.5 C112.46,89.66 116.1,89.48 117.48,89.85 C121.29,90.87 122.41,92 124.59,92.54 C127.81,95.5 131.86,100.57 134.12,107.42 C137.24,116.9 135.23,120.29 140.75,138.51 C141.06,139.55 141.61,144.33 142.79,145.84 C137.48,145.53 127.39,148.96 119.74,153.92 C115.93,156.38 114.36,159.01 113.92,159.41 C113.77,158.63 112.53,155.33 112.67,151.61 C113.1,139.35 107.09,118.31 106.34,102.61 C106.04,96.35 110.6,91.34 111.53,90.5z "/><path id="_R_G_L_1_G_G_0_L_1_G_D_35_P_0" fill="#edeeef" fill-opacity="1" fill-rule="nonzero" d=" M192.45 200.68 C191.76,201.23 193.49,204.39 189.76,205.22 C183.69,206.56 181.89,203.17 182.24,205.56 C182.34,207.01 181.7,208.15 182.15,211.21 C182.21,211.65 182.25,213.12 182.25,213.12 C182.25,213.12 185.54,213.44 189.67,213.44 C192.74,213.44 195.17,212.91 199.09,213.33 C203.01,213.76 211.71,212.7 212.87,212.49 C214.04,212.28 214.42,210.83 214.32,210.25 C214.07,209.15 214.17,208.2 212.68,207.46 C212.07,207.15 208.14,206.49 204.39,205.5 C196.54,203.42 193.15,200.14 192.45,200.68z "/><path id="_R_G_L_1_G_G_0_L_1_G_D_36_P_0" fill="#000000" fill-opacity="1" fill-rule="nonzero" d=" M130.45 73.76 C130.45,74.14 130.62,74.44 130.83,74.44 C131.04,74.44 131.21,74.14 131.21,73.76 C131.21,73.38 131.04,73.07 130.83,73.07 C130.62,73.07 130.45,73.38 130.45,73.76z "/><path id="_R_G_L_1_G_G_0_L_1_G_D_37_P_0" fill="#ef9c62" fill-opacity="1" fill-rule="nonzero" d=" M131.34 73.27 C131.35,72.82 130.89,72.42 130.89,72.42 C130.89,72.42 128.42,72.59 127.48,73.93 C128.04,73.84 129.41,73.32 131.34,73.27z "/><path id="_R_G_L_1_G_G_0_L_1_G_D_38_P_0" fill="#fc8b70" fill-opacity="1" fill-rule="nonzero" d=" M128.88 82.81 C129.41,84.69 132.82,84.85 132.82,84.85 C132.82,84.85 132.84,85.16 132.78,85.61 C129.53,85.13 128.94,83.27 128.7,82.61 C131.79,82.96 132.43,82.17 133.23,82.5 C133.25,82.73 133.27,82.9 133.27,82.9 C133.27,82.9 130.25,83.2 128.88,82.81z "/><path id="_R_G_L_1_G_G_0_L_1_G_D_39_P_0" fill="#edeeef" fill-opacity="1" fill-rule="nonzero" d=" M224.03 89.35 C224.03,89.35 221.26,89.35 221.26,89.35 C219.38,89.35 217.72,88.23 217.03,86.48 C217.03,86.48 207.9,63.37 207.9,63.37 C207.9,63.37 210.45,62.36 210.45,62.36 C210.45,62.36 219.58,85.47 219.58,85.47 C219.85,86.17 220.51,86.61 221.26,86.61 C221.26,86.61 224.03,86.61 224.03,86.61 C224.03,86.61 224.03,89.35 224.03,89.35z "/><path id="_R_G_L_1_G_G_0_L_1_G_D_40_P_0" fill="#edeeef" fill-opacity="1" fill-rule="nonzero" d=" M228.63 212.01 C228.63,212.01 224.03,212.01 224.03,212.01 C224.03,212.01 224.03,60.48 224.03,60.48 C224.03,60.48 228.63,60.48 228.63,60.48 C228.63,60.48 228.63,212.01 228.63,212.01z "/><path id="_R_G_L_1_G_G_0_L_1_G_D_41_P_0" fill="#edeeef" fill-opacity="1" fill-rule="nonzero" d=" M153.21 162.44 C153.21,162.44 150.26,162.44 150.26,162.44 C150.26,162.44 150.26,138.94 150.26,138.94 C150.26,138.94 153.21,138.94 153.21,138.94 C153.21,138.94 153.21,162.44 153.21,162.44z "/><path id="_R_G_L_1_G_G_0_L_1_G_D_42_P_0" fill="#edeeef" fill-opacity="1" fill-rule="nonzero" d=" M128.53 144.13 C128.53,144.13 163.91,144.13 163.91,144.13 C163.91,144.13 163.91,146.38 163.91,146.38 C163.91,146.38 128.53,146.38 128.53,146.38 C128.53,146.38 128.53,144.13 128.53,144.13z "/><path id="_R_G_L_1_G_G_0_L_1_G_D_43_P_0" fill="#edeeef" fill-opacity="1" fill-rule="nonzero" d=" M163.32 153.6 C163.32,153.6 141.23,153.6 141.23,153.6 C141.23,153.6 141.23,150.63 141.23,150.63 C141.23,150.63 163.32,150.63 163.32,150.63 C163.59,150.63 163.81,150.4 163.81,150.13 C163.81,150.13 163.81,145.32 163.81,145.32 C163.81,143 163.24,141.29 162.1,140.24 C160.66,138.9 158.72,139.01 158.7,139.01 C158.7,139.01 158.59,139.02 158.59,139.02 C158.59,139.02 109.68,139.02 109.68,139.02 C109.68,139.02 109.68,136.04 109.68,136.04 C109.68,136.04 158.54,136.04 158.54,136.04 C159.05,136.02 161.89,135.99 164.13,138.06 C165.89,139.69 166.79,142.13 166.79,145.32 C166.79,145.32 166.79,150.13 166.79,150.13 C166.79,152.05 165.23,153.6 163.32,153.6z "/><path id="_R_G_L_1_G_G_0_L_1_G_D_44_P_0" fill="#fcb681" fill-opacity="1" fill-rule="nonzero" d=" M167.35 149.98 C170.75,149.98 171.05,145.85 171.77,140.1 C172.09,137.6 171.36,136.59 170.04,135.85 C166.99,134.17 163.87,133.02 161.71,132.79 C153.64,131.93 143.54,128.97 129.73,126.83 C129.16,126.75 127.03,124.97 127,123.34 C126.7,107.76 121.41,95.5 121.41,95.5 C121.41,95.5 108.93,97.66 108.93,97.66 C110.66,123.63 116.44,125 119.96,133.81 C120.23,134.48 124.71,137.43 136.17,138.05 C153.75,138.99 154.82,137.12 160.47,137.63 C163.41,139.6 164.32,139.68 164.73,139.76 C165.23,140.84 165.86,141.61 166.03,142.68 C166.44,145.39 166.12,147.24 166.11,147.24 C166.11,147.24 166.11,149.98 167.35,149.98z "/><path id="_R_G_L_1_G_G_0_L_1_G_D_45_P_0" fill="#58ba24" fill-opacity="1" fill-rule="nonzero" d=" M127.36 122.13 C127.36,122.13 115.53,125.48 112.73,126.57 C110.22,119.08 108.05,104.99 108.05,101.95 C108.04,97.15 109.87,92.76 114.22,91.91 C118.57,91.06 121.99,94.38 122.49,95.98 C122.99,97.59 127.57,112.04 127.36,122.13z "/><path id="_R_G_L_1_G_G_0_L_1_G_D_46_P_0" fill="#586838" fill-opacity="1" fill-rule="nonzero" d=" M297.98 141.16 C297.98,141.16 286.39,67.59 286.39,67.59 C286.39,67.59 295.69,67.59 295.69,67.59 C295.69,67.59 297.52,70.77 297.52,70.77 C297.52,70.77 297.25,70.77 297.25,70.77 C295.65,70.77 294.5,72.3 294.95,73.83 C294.95,73.83 311.87,131.88 311.87,131.88 C312.62,134.47 314.99,136.24 317.69,136.24 C317.69,136.24 335.26,136.24 335.26,136.24 C336.12,137.82 336.81,139.47 337.36,141.16 C337.36,141.16 297.98,141.16 297.98,141.16z "/><path id="_R_G_L_1_G_G_0_L_1_G_D_47_P_0" fill="#73844a" fill-opacity="1" fill-rule="nonzero" d=" M128.71 185.77 C106.82,185.77 89.06,201.64 88.93,224.57 C89.03,224.67 89.09,224.73 89.19,224.83 C89.19,224.83 99.33,224.83 99.33,224.83 C102.02,224.83 104.4,222.94 104.88,220.29 C106.95,208.94 116.84,202.1 128.71,202.1 C140.59,202.1 150.47,208.94 152.54,220.29 C153.03,222.94 155.4,224.83 158.1,224.83 C158.1,224.83 168.5,224.83 168.5,224.83 C168.5,201.76 150.69,185.77 128.71,185.77z "/><path id="_R_G_L_1_G_G_0_L_1_G_D_48_P_0" fill="#edeeef" fill-opacity="1" fill-rule="nonzero" d=" M267.29 224.83 C267.29,224.83 176.72,224.83 176.72,224.83 C176.72,224.83 176.72,224.18 176.72,224.18 C176.72,221.83 178.62,219.92 180.98,219.92 C180.98,219.92 267.29,219.92 267.29,219.92 C281.09,219.92 287.8,212.58 290.44,198.95 C291.57,193.14 298.44,145.96 298.52,145.51 C298.52,145.51 298.96,145.51 298.96,145.51 C300.31,145.51 301.37,146.67 301.27,148.01 C300.49,157.77 296.25,195.07 295.25,200.22 C292,217.01 284.31,224.83 267.29,224.83z "/><path id="_R_G_L_1_G_G_0_L_1_G_D_49_P_0" fill="#8cc8dd" fill-opacity="1" fill-rule="nonzero" d=" M316.31 136.24 C316.31,136.24 335.26,136.24 335.26,136.24 C335.26,136.23 335.26,136.23 335.27,136.22 C335.27,136.22 297.52,70.76 297.52,70.76 C297.52,70.76 295.87,70.76 295.87,70.76 C294.27,70.76 293.12,72.3 293.57,73.83 C293.57,73.83 310.49,131.88 310.49,131.88 C311.24,134.47 313.62,136.24 316.31,136.24z "/><path id="_R_G_L_1_G_G_0_L_1_G_D_50_P_0" fill="#1b1c20" fill-opacity="1" fill-rule="nonzero" d=" M336.75 139.42 C336.75,139.42 297.71,139.42 297.71,139.42 C297.71,139.42 298.18,142.41 298.18,142.41 C298.2,142.57 298.22,142.73 298.24,142.89 C298.24,142.89 337.88,142.89 337.88,142.89 C337.58,141.71 337.2,140.56 336.75,139.42z "/><path id="_R_G_L_1_G_G_0_L_1_G_D_51_P_0" fill="#586838" fill-opacity="1" fill-rule="nonzero" d=" M109.8 151.8 C109.8,151.8 109.55,151.8 109.55,151.8 C108.12,151.8 106.95,150.63 106.95,149.19 C106.95,149.19 106.95,137.53 106.95,137.53 C106.95,137.53 112.41,137.53 112.41,137.53 C112.41,137.53 112.41,149.19 112.41,149.19 C112.41,150.63 111.24,151.8 109.8,151.8z "/><path id="_R_G_L_1_G_G_0_L_1_G_D_52_P_0" fill="#feb329" fill-opacity="1" fill-rule="nonzero" d=" M114.1 147.5 C114.1,147.5 105.26,147.5 105.26,147.5 C105.26,147.5 105.26,145.25 105.26,145.25 C105.26,145.25 114.1,145.25 114.1,145.25 C114.1,145.25 114.1,147.5 114.1,147.5z "/><path id="_R_G_L_1_G_G_0_L_1_G_D_53_P_0" fill="#edeeef" fill-opacity="1" fill-rule="nonzero" d=" M305.79 172.61 C305.79,172.61 335.85,173.54 335.85,173.54 C337.46,173.59 338.78,172.31 338.78,170.7 C338.78,170.7 338.78,170.35 338.78,170.35 C338.78,168.75 337.46,167.46 335.85,167.51 C335.85,167.51 305.79,168.45 305.79,168.45 C304.68,168.48 303.79,169.39 303.79,170.51 C303.79,170.51 303.79,170.55 303.79,170.55 C303.79,171.66 304.68,172.57 305.79,172.61z "/><path id="_R_G_L_1_G_G_0_L_1_G_D_54_P_0" fill="#1b1c20" fill-opacity="1" fill-rule="nonzero" d=" M319.54 164.66 C319.54,164.66 305.87,164.66 305.87,164.66 C305.09,164.66 304.46,164.03 304.46,163.25 C304.46,163.25 304.46,158.17 304.46,158.17 C304.46,157.39 305.09,156.76 305.87,156.76 C305.87,156.76 319.54,156.76 319.54,156.76 C320.32,156.76 320.96,157.39 320.96,158.17 C320.96,158.17 320.96,163.25 320.96,163.25 C320.96,164.03 320.32,164.66 319.54,164.66z "/><path id="_R_G_L_1_G_G_0_L_1_G_D_55_P_0" fill="#f7af2c" fill-opacity="1" fill-rule="nonzero" d=" M319.2 163.4 C319.2,163.4 306.21,163.4 306.21,163.4 C305.85,163.4 305.55,163.11 305.55,162.74 C305.55,162.74 305.55,158.68 305.55,158.68 C305.55,158.31 305.85,158.02 306.21,158.02 C306.21,158.02 319.2,158.02 319.2,158.02 C319.57,158.02 319.86,158.31 319.86,158.68 C319.86,158.68 319.86,162.74 319.86,162.74 C319.86,163.11 319.57,163.4 319.2,163.4z "/><path id="_R_G_L_1_G_G_0_L_1_G_D_56_P_0" fill="#feb329" fill-opacity="1" fill-rule="nonzero" d=" M370.82 186.49 C370.82,186.49 364.21,185.73 364.21,185.73 C361.74,185.45 359.87,183.36 359.87,180.87 C359.87,180.87 359.87,179.72 359.87,179.72 C359.87,177.23 361.74,175.14 364.21,174.86 C364.21,174.86 370.82,174.11 370.82,174.11 C370.82,174.11 370.82,186.49 370.82,186.49z "/><path id="_R_G_L_1_G_G_0_L_1_G_D_57_P_0" fill="#1b1c20" fill-opacity="1" fill-rule="nonzero" d=" M371.35 187.04 C371.35,187.04 372.08,187.04 372.08,187.04 C373.06,187.04 373.86,186.25 373.86,185.27 C373.86,185.27 373.86,175.32 373.86,175.32 C373.86,174.34 373.06,173.54 372.08,173.54 C372.08,173.54 371.35,173.54 371.35,173.54 C370.99,173.54 370.71,173.83 370.71,174.19 C370.71,174.19 370.71,186.4 370.71,186.4 C370.71,186.76 370.99,187.04 371.35,187.04z "/><path id="_R_G_L_1_G_G_0_L_1_G_D_58_P_0" fill="#586838" fill-opacity="1" fill-rule="nonzero" d=" M117.61 141.16 C124.46,141.16 131.14,143.28 136.73,147.25 C136.73,147.25 153.29,158.98 153.29,158.98 C159.54,163.42 163.95,169.99 165.69,177.45 C165.69,177.45 170.34,197.45 170.34,197.45 C172.32,205.92 179.86,211.91 188.56,211.91 C188.56,211.91 208.85,211.91 208.85,211.91 C214.38,211.91 218.86,207.43 218.86,201.91 C218.86,201.91 218.86,169.85 218.86,169.85 C218.86,168.56 219.9,167.51 221.2,167.51 C221.2,167.51 231.46,167.51 231.46,167.51 C232.76,167.51 233.8,168.56 233.8,169.85 C233.8,169.85 233.8,201.91 233.8,201.91 C233.8,207.43 238.28,211.91 243.81,211.91 C243.81,211.91 272.58,211.91 272.58,211.91 C281.75,211.91 289.57,205.27 291.03,196.21 C291.03,196.21 298.15,152.41 298.15,152.41 C298.69,149.1 298.7,145.72 298.18,142.41 C298.18,142.41 297.98,141.16 297.98,141.16 C297.98,141.16 337.36,141.16 337.36,141.16 C337.41,141.31 337.49,141.52 337.53,141.69 C339.35,147.68 339.2,154.17 336.96,160.15 C336.96,160.15 317.65,211.8 317.65,211.8 C314.72,219.63 307.23,224.83 298.87,224.83 C298.87,224.83 87.22,224.83 87.22,224.83 C84.61,224.83 82.13,223.67 80.47,221.65 C80.47,221.65 77.68,218.28 77.68,218.28 C74.28,214.16 72.43,209 72.43,203.66 C72.43,203.66 72.43,141.16 72.43,141.16 C72.43,141.16 117.61,141.16 117.61,141.16z "/><path id="_R_G_L_1_G_G_0_L_1_G_D_59_P_0" fill="#586838" fill-opacity="1" fill-rule="nonzero" d=" M336.89 139.81 C336.75,139.45 336.61,139.1 336.46,138.74 C336.61,139.1 336.75,139.45 336.89,139.81z "/><path id="_R_G_L_1_G_G_0_L_1_G_D_60_P_0" fill="#edeeef" fill-opacity="1" fill-rule="nonzero" d=" M73.92 224.95 C73.92,224.95 71.74,224.95 71.74,224.95 C70.25,224.95 69.04,223.74 69.04,222.25 C69.04,222.25 69.04,215.92 69.04,215.92 C69.04,214.43 70.25,213.22 71.74,213.22 C71.74,213.22 73.92,213.22 73.92,213.22 C73.92,213.22 73.92,224.95 73.92,224.95z "/><path id="_R_G_L_1_G_G_0_L_1_G_D_61_P_0" fill="#586838" fill-opacity="1" fill-rule="nonzero" d=" M80.23 151.8 C80.23,151.8 79.98,151.8 79.98,151.8 C78.54,151.8 77.38,150.63 77.38,149.19 C77.38,149.19 77.38,137.53 77.38,137.53 C77.38,137.53 82.84,137.53 82.84,137.53 C82.84,137.53 82.84,149.19 82.84,149.19 C82.84,150.63 81.67,151.8 80.23,151.8z "/><path id="_R_G_L_1_G_G_0_L_1_G_D_62_P_0" fill="#feb329" fill-opacity="1" fill-rule="nonzero" d=" M84.53 147.5 C84.53,147.5 75.69,147.5 75.69,147.5 C75.69,147.5 75.69,145.25 75.69,145.25 C75.69,145.25 84.53,145.25 84.53,145.25 C84.53,145.25 84.53,147.5 84.53,147.5z "/><path id="_R_G_L_1_G_G_0_L_1_G_D_63_P_0" fill="#feb329" fill-opacity="1" fill-rule="nonzero" d=" M226.33 63.53 C226.33,63.53 140.75,63.53 140.75,63.53 C132.58,63.53 125.7,69.67 124.78,77.79 C124.78,77.79 117.61,141.16 117.61,141.16 C117.61,141.16 72.42,141.16 72.42,141.16 C72.42,141.16 72.42,72.17 72.42,72.17 C72.42,57.15 84.89,45.14 99.9,45.69 C99.9,45.69 227.82,50.41 227.82,50.41 C228.36,50.43 228.9,50.5 229.43,50.61 C229.43,50.61 302.38,65.15 302.38,65.15 C303.2,65.31 303.79,66.03 303.79,66.88 C303.79,66.88 303.79,67.59 303.79,67.59 C303.79,67.59 286.39,67.59 286.39,67.59 C286.39,67.59 226.33,63.53 226.33,63.53z "/><path id="_R_G_L_1_G_G_0_L_1_G_D_64_P_0" fill="#ffaf45" fill-opacity="1" fill-rule="nonzero" d=" M110.42 173.26 C110.42,173.26 115.17,173.26 115.17,173.26 C115.17,173.26 115.17,168.51 115.17,168.51 C115.17,168.51 110.42,168.51 110.42,168.51 C110.42,168.51 110.42,173.26 110.42,173.26z "/><path id="_R_G_L_1_G_G_0_L_1_G_D_65_P_0" fill="#ffaf45" fill-opacity="1" fill-rule="nonzero" d=" M105.67 178.01 C105.67,178.01 110.42,178.01 110.42,178.01 C110.42,178.01 110.42,173.26 110.42,173.26 C110.42,173.26 105.67,173.26 105.67,173.26 C105.67,173.26 105.67,178.01 105.67,178.01z "/><path id="_R_G_L_1_G_G_0_L_1_G_D_66_P_0" fill="#ffaf45" fill-opacity="1" fill-rule="nonzero" d=" M100.92 173.26 C100.92,173.26 105.67,173.26 105.67,173.26 C105.67,173.26 105.67,168.51 105.67,168.51 C105.67,168.51 100.92,168.51 100.92,168.51 C100.92,168.51 100.92,173.26 100.92,173.26z "/><path id="_R_G_L_1_G_G_0_L_1_G_D_67_P_0" fill="#ffaf45" fill-opacity="1" fill-rule="nonzero" d=" M96.17 178.01 C96.17,178.01 100.92,178.01 100.92,178.01 C100.92,178.01 100.92,173.26 100.92,173.26 C100.92,173.26 96.17,173.26 96.17,173.26 C96.17,173.26 96.17,178.01 96.17,178.01z "/><path id="_R_G_L_1_G_G_0_L_1_G_D_68_P_0" fill="#ffaf45" fill-opacity="1" fill-rule="nonzero" d=" M91.42 173.26 C91.42,173.26 96.17,173.26 96.17,173.26 C96.17,173.26 96.17,168.51 96.17,168.51 C96.17,168.51 91.42,168.51 91.42,168.51 C91.42,168.51 91.42,173.26 91.42,173.26z "/><path id="_R_G_L_1_G_G_0_L_1_G_D_69_P_0" fill="#ffaf45" fill-opacity="1" fill-rule="nonzero" d=" M86.67 178.01 C86.67,178.01 91.42,178.01 91.42,178.01 C91.42,178.01 91.42,173.26 91.42,173.26 C91.42,173.26 86.67,173.26 86.67,173.26 C86.67,173.26 86.67,178.01 86.67,178.01z "/><path id="_R_G_L_1_G_G_0_L_1_G_D_70_P_0" fill="#ffaf45" fill-opacity="1" fill-rule="nonzero" d=" M81.92 173.26 C81.92,173.26 86.67,173.26 86.67,173.26 C86.67,173.26 86.67,168.51 86.67,168.51 C86.67,168.51 81.92,168.51 81.92,168.51 C81.92,168.51 81.92,173.26 81.92,173.26z "/><path id="_R_G_L_1_G_G_0_L_1_G_D_71_P_0" fill="#ffaf45" fill-opacity="1" fill-rule="nonzero" d=" M77.17 178.01 C77.17,178.01 81.92,178.01 81.92,178.01 C81.92,178.01 81.92,173.26 81.92,173.26 C81.92,173.26 77.17,173.26 77.17,173.26 C77.17,173.26 77.17,178.01 77.17,178.01z "/><path id="_R_G_L_1_G_G_0_L_1_G_D_72_P_0" fill="#ffaf45" fill-opacity="1" fill-rule="nonzero" d=" M72.42 173.26 C72.42,173.26 77.17,173.26 77.17,173.26 C77.17,173.26 77.17,168.51 77.17,168.51 C77.17,168.51 72.42,168.51 72.42,168.51 C72.42,168.51 72.42,173.26 72.42,173.26z "/><path id="_R_G_L_1_G_G_0_L_1_G_D_73_P_0" fill="#000000" fill-opacity="1" fill-rule="nonzero" d=" M110.42 178.01 C110.42,178.01 115.17,178.01 115.17,178.01 C115.17,178.01 115.17,173.26 115.17,173.26 C115.17,173.26 110.42,173.26 110.42,173.26 C110.42,173.26 110.42,178.01 110.42,178.01z "/><path id="_R_G_L_1_G_G_0_L_1_G_D_74_P_0" fill="#000000" fill-opacity="1" fill-rule="nonzero" d=" M105.67 173.26 C105.67,173.26 110.42,173.26 110.42,173.26 C110.42,173.26 110.42,168.51 110.42,168.51 C110.42,168.51 105.67,168.51 105.67,168.51 C105.67,168.51 105.67,173.26 105.67,173.26z "/><path id="_R_G_L_1_G_G_0_L_1_G_D_75_P_0" fill="#000000" fill-opacity="1" fill-rule="nonzero" d=" M100.92 178.01 C100.92,178.01 105.67,178.01 105.67,178.01 C105.67,178.01 105.67,173.26 105.67,173.26 C105.67,173.26 100.92,173.26 100.92,173.26 C100.92,173.26 100.92,178.01 100.92,178.01z "/><path id="_R_G_L_1_G_G_0_L_1_G_D_76_P_0" fill="#000000" fill-opacity="1" fill-rule="nonzero" d=" M96.17 173.26 C96.17,173.26 100.92,173.26 100.92,173.26 C100.92,173.26 100.92,168.51 100.92,168.51 C100.92,168.51 96.17,168.51 96.17,168.51 C96.17,168.51 96.17,173.26 96.17,173.26z "/><path id="_R_G_L_1_G_G_0_L_1_G_D_77_P_0" fill="#000000" fill-opacity="1" fill-rule="nonzero" d=" M91.42 178.01 C91.42,178.01 96.17,178.01 96.17,178.01 C96.17,178.01 96.17,173.26 96.17,173.26 C96.17,173.26 91.42,173.26 91.42,173.26 C91.42,173.26 91.42,178.01 91.42,178.01z "/><path id="_R_G_L_1_G_G_0_L_1_G_D_78_P_0" fill="#000000" fill-opacity="1" fill-rule="nonzero" d=" M86.67 173.26 C86.67,173.26 91.42,173.26 91.42,173.26 C91.42,173.26 91.42,168.51 91.42,168.51 C91.42,168.51 86.67,168.51 86.67,168.51 C86.67,168.51 86.67,173.26 86.67,173.26z "/><path id="_R_G_L_1_G_G_0_L_1_G_D_79_P_0" fill="#000000" fill-opacity="1" fill-rule="nonzero" d=" M81.92 178.01 C81.92,178.01 86.67,178.01 86.67,178.01 C86.67,178.01 86.67,173.26 86.67,173.26 C86.67,173.26 81.92,173.26 81.92,173.26 C81.92,173.26 81.92,178.01 81.92,178.01z "/><path id="_R_G_L_1_G_G_0_L_1_G_D_80_P_0" fill="#000000" fill-opacity="1" fill-rule="nonzero" d=" M77.17 173.26 C77.17,173.26 81.92,173.26 81.92,173.26 C81.92,173.26 81.92,168.51 81.92,168.51 C81.92,168.51 77.17,168.51 77.17,168.51 C77.17,168.51 77.17,173.26 77.17,173.26z "/><path id="_R_G_L_1_G_G_0_L_1_G_D_81_P_0" fill="#000000" fill-opacity="1" fill-rule="nonzero" d=" M72.42 178.01 C72.42,178.01 77.17,178.01 77.17,178.01 C77.17,178.01 77.17,173.26 77.17,173.26 C77.17,173.26 72.42,173.26 72.42,173.26 C72.42,173.26 72.42,178.01 72.42,178.01z "/><path id="_R_G_L_1_G_G_0_L_1_G_D_82_P_0" fill="#ffaf45" fill-opacity="1" fill-rule="nonzero" d=" M148.39 173.26 C148.39,173.26 153.14,173.26 153.14,173.26 C153.14,173.26 153.14,168.51 153.14,168.51 C153.14,168.51 148.39,168.51 148.39,168.51 C148.39,168.51 148.39,173.26 148.39,173.26z "/><path id="_R_G_L_1_G_G_0_L_1_G_D_83_P_0" fill="#ffaf45" fill-opacity="1" fill-rule="nonzero" d=" M143.64 178.01 C143.64,178.01 148.39,178.01 148.39,178.01 C148.39,178.01 148.39,173.26 148.39,173.26 C148.39,173.26 143.64,173.26 143.64,173.26 C143.64,173.26 143.64,178.01 143.64,178.01z "/><path id="_R_G_L_1_G_G_0_L_1_G_D_84_P_0" fill="#ffaf45" fill-opacity="1" fill-rule="nonzero" d=" M138.89 173.26 C138.89,173.26 143.64,173.26 143.64,173.26 C143.64,173.26 143.64,168.51 143.64,168.51 C143.64,168.51 138.89,168.51 138.89,168.51 C138.89,168.51 138.89,173.26 138.89,173.26z "/><path id="_R_G_L_1_G_G_0_L_1_G_D_85_P_0" fill="#ffaf45" fill-opacity="1" fill-rule="nonzero" d=" M134.14 178.01 C134.14,178.01 138.89,178.01 138.89,178.01 C138.89,178.01 138.89,173.26 138.89,173.26 C138.89,173.26 134.14,173.26 134.14,173.26 C134.14,173.26 134.14,178.01 134.14,178.01z "/><path id="_R_G_L_1_G_G_0_L_1_G_D_86_P_0" fill="#ffaf45" fill-opacity="1" fill-rule="nonzero" d=" M129.39 173.26 C129.39,173.26 134.14,173.26 134.14,173.26 C134.14,173.26 134.14,168.51 134.14,168.51 C134.14,168.51 129.39,168.51 129.39,168.51 C129.39,168.51 129.39,173.26 129.39,173.26z "/><path id="_R_G_L_1_G_G_0_L_1_G_D_87_P_0" fill="#ffaf45" fill-opacity="1" fill-rule="nonzero" d=" M124.64 178.01 C124.64,178.01 129.39,178.01 129.39,178.01 C129.39,178.01 129.39,173.26 129.39,173.26 C129.39,173.26 124.64,173.26 124.64,173.26 C124.64,173.26 124.64,178.01 124.64,178.01z "/><path id="_R_G_L_1_G_G_0_L_1_G_D_88_P_0" fill="#ffaf45" fill-opacity="1" fill-rule="nonzero" d=" M119.89 173.26 C119.89,173.26 124.64,173.26 124.64,173.26 C124.64,173.26 124.64,168.51 124.64,168.51 C124.64,168.51 119.89,168.51 119.89,168.51 C119.89,168.51 119.89,173.26 119.89,173.26z "/><path id="_R_G_L_1_G_G_0_L_1_G_D_89_P_0" fill="#ffaf45" fill-opacity="1" fill-rule="nonzero" d=" M115.14 178.01 C115.14,178.01 119.89,178.01 119.89,178.01 C119.89,178.01 119.89,173.26 119.89,173.26 C119.89,173.26 115.14,173.26 115.14,173.26 C115.14,173.26 115.14,178.01 115.14,178.01z "/><path id="_R_G_L_1_G_G_0_L_1_G_D_90_P_0" fill="#000000" fill-opacity="1" fill-rule="nonzero" d=" M148.39 178.01 C148.39,178.01 153.14,178.01 153.14,178.01 C153.14,178.01 153.14,173.26 153.14,173.26 C153.14,173.26 148.39,173.26 148.39,173.26 C148.39,173.26 148.39,178.01 148.39,178.01z "/><path id="_R_G_L_1_G_G_0_L_1_G_D_91_P_0" fill="#000000" fill-opacity="1" fill-rule="nonzero" d=" M143.64 173.26 C143.64,173.26 148.39,173.26 148.39,173.26 C148.39,173.26 148.39,168.51 148.39,168.51 C148.39,168.51 143.64,168.51 143.64,168.51 C143.64,168.51 143.64,173.26 143.64,173.26z "/><path id="_R_G_L_1_G_G_0_L_1_G_D_92_P_0" fill="#000000" fill-opacity="1" fill-rule="nonzero" d=" M138.89 178.01 C138.89,178.01 143.64,178.01 143.64,178.01 C143.64,178.01 143.64,173.26 143.64,173.26 C143.64,173.26 138.89,173.26 138.89,173.26 C138.89,173.26 138.89,178.01 138.89,178.01z "/><path id="_R_G_L_1_G_G_0_L_1_G_D_93_P_0" fill="#000000" fill-opacity="1" fill-rule="nonzero" d=" M134.14 173.26 C134.14,173.26 138.89,173.26 138.89,173.26 C138.89,173.26 138.89,168.51 138.89,168.51 C138.89,168.51 134.14,168.51 134.14,168.51 C134.14,168.51 134.14,173.26 134.14,173.26z "/><path id="_R_G_L_1_G_G_0_L_1_G_D_94_P_0" fill="#000000" fill-opacity="1" fill-rule="nonzero" d=" M129.39 178.01 C129.39,178.01 134.14,178.01 134.14,178.01 C134.14,178.01 134.14,173.26 134.14,173.26 C134.14,173.26 129.39,173.26 129.39,173.26 C129.39,173.26 129.39,178.01 129.39,178.01z "/><path id="_R_G_L_1_G_G_0_L_1_G_D_95_P_0" fill="#000000" fill-opacity="1" fill-rule="nonzero" d=" M124.64 173.26 C124.64,173.26 129.39,173.26 129.39,173.26 C129.39,173.26 129.39,168.51 129.39,168.51 C129.39,168.51 124.64,168.51 124.64,168.51 C124.64,168.51 124.64,173.26 124.64,173.26z "/><path id="_R_G_L_1_G_G_0_L_1_G_D_96_P_0" fill="#000000" fill-opacity="1" fill-rule="nonzero" d=" M119.89 178.01 C119.89,178.01 124.64,178.01 124.64,178.01 C124.64,178.01 124.64,173.26 124.64,173.26 C124.64,173.26 119.89,173.26 119.89,173.26 C119.89,173.26 119.89,178.01 119.89,178.01z "/><path id="_R_G_L_1_G_G_0_L_1_G_D_97_P_0" fill="#000000" fill-opacity="1" fill-rule="nonzero" d=" M115.14 173.26 C115.14,173.26 119.89,173.26 119.89,173.26 C119.89,173.26 119.89,168.51 119.89,168.51 C119.89,168.51 115.14,168.51 115.14,168.51 C115.14,168.51 115.14,173.26 115.14,173.26z "/></g><g id="_R_G_L_1_G_G_0_L_0_G"><path id="_R_G_L_1_G_G_0_L_0_G_D_0_P_0" fill="#c16546" fill-opacity="1" fill-rule="nonzero" d=" M296.25 140.9 C300.89,140.36 303.16,141.19 302.37,135.43 C302.02,132.91 301.06,132.08 299.59,131.65 C296.21,130.67 292.9,130.23 290.75,130.47 C282.72,131.38 272.19,130.66 258.29,131.57 C257.71,131.6 255.19,130.33 254.74,128.74 C250.41,113.6 242.12,102.78 242.12,102.78 C242.12,102.78 230.61,107.59 230.61,107.59 C236,123.58 245.46,130.91 251.59,140.58 C251.99,141.21 256.17,143.01 267.42,141.12 C284.66,138.24 285.12,135.97 290.72,135.24 C294.02,136.15 294.51,135.1 295.15,135.46 C296.14,136.01 296.22,137.7 296.22,137.83 C296.23,139.31 294.41,139.35 294.4,139.36 C294.4,139.36 293.73,141.19 296.25,140.9z "/><path id="_R_G_L_1_G_G_0_L_0_G_D_1_P_0" fill="#c9ac8f" fill-opacity="1" fill-rule="nonzero" d=" M254.78 127.49 C254.78,127.49 244.2,133.32 241.78,134.99 C237.42,128.22 231.66,114.93 230.87,111.97 C229.62,107.28 230.25,102.6 234.23,100.83 C238.22,99.06 242.39,101.55 243.29,103.01 C244.18,104.47 252.36,117.59 254.78,127.49z "/><path id="_R_G_L_1_G_G_0_L_0_G_D_2_P_0" fill="#d17343" fill-opacity="1" fill-rule="nonzero" d=" M229.14 81.04 C228.88,78.77 230.17,76.35 232.31,76.69 C232.8,76.77 233.26,76.99 233.66,77.31 C234.74,74.72 236.27,73.19 238.08,72.51 C241.63,71.15 248.45,73.21 248.45,73.21 C248.45,73.21 250.12,77.44 249.97,78.47 C249.82,79.49 248.35,79.48 248.96,81.04 C249.56,82.6 251.65,85.26 251.65,85.26 C252.48,86.35 252.32,87.15 251.88,87.52 C251.61,87.75 251.11,87.89 250.22,87.86 C249.11,88.98 250.54,89.51 249.63,90.57 C249.14,91.14 249.14,91.73 249.46,92.41 C249.77,93.08 250.46,96.44 245.21,96.37 C244.02,96.36 242.82,96.14 241.66,95.78 C241.66,95.78 240.09,103.08 240.09,103.08 C240.09,103.08 227.64,101.22 227.64,101.22 C227.64,101.22 231.12,85.09 231.12,85.09 C230.16,84.43 229.36,82.92 229.14,81.04z "/><path id="_R_G_L_1_G_G_0_L_0_G_D_3_P_0" fill="#ffffff" fill-opacity="1" fill-rule="nonzero" d=" M246.5 79.6 C246.5,79.6 245.96,79.19 244.53,79.68 C243.69,79.97 242.79,80.64 242.01,80.77 C241.66,80.83 244,81.79 246.19,81.71 C246.76,81.69 247.44,80.47 246.5,79.6z "/><path id="_R_G_L_1_G_G_0_L_0_G_D_4_P_0" fill="#1b1c20" fill-opacity="1" fill-rule="nonzero" d=" M246.5 79.6 C247.2,80.25 247,81.09 246.62,81.49 C246.47,81.58 246.31,81.65 246.14,81.64 C245.6,81.63 245.17,81.03 245.19,80.32 C245.2,79.98 245.31,79.68 245.47,79.46 C246.2,79.38 246.5,79.6 246.5,79.6z "/><path id="_R_G_L_1_G_G_0_L_0_G_D_5_P_0" fill="#1b1c20" fill-opacity="1" fill-rule="nonzero" d=" M249.67 87.85 C249.67,87.85 248.62,87.76 247.91,87.83 C247.44,87.87 245.86,87.81 245.02,88.86 C243.1,91.29 241.49,93.21 243.46,93.88 C244.09,94.09 244.2,93.42 244.49,92.48 C245.46,89.42 246.13,90.33 247.76,90.12 C249.11,89.94 249.7,89.96 249.7,89.96 C249.7,89.96 250.82,90.21 250.73,88.56 C250.68,87.84 249.67,87.85 249.67,87.85z "/><path id="_R_G_L_1_G_G_0_L_0_G_D_6_P_0" fill="#e94f0a" fill-opacity="1" fill-rule="nonzero" d=" M247.75 90.12 C249.11,89.94 249.69,89.96 249.69,89.96 C249.69,89.96 249.88,89.96 249.96,89.97 C249.93,90.18 249.8,90.5 249.66,90.71 C249.39,91.09 249.1,91.1 248.17,90.99 C247.45,90.9 246.9,90.47 246.47,90.14 C246.91,90.18 247.35,90.17 247.75,90.12z "/><path id="_R_G_L_1_G_G_0_L_0_G_D_7_P_0" fill="#1b1c20" fill-opacity="1" fill-rule="nonzero" d=" M250.46 77.99 C250.46,77.99 250.67,78.67 250.23,79.19 C249.95,79.53 248.1,78.72 247.4,78.43 C245.88,77.79 243.62,78.21 242.79,78.37 C241.96,78.54 242.4,77.9 243.7,77.67 C244.79,77.47 246.7,77.24 247.82,77.39 C248.9,77.54 250.26,77.79 250.46,77.99z "/><path id="_R_G_L_1_G_G_0_L_0_G_D_8_P_0" fill="#1b1c20" fill-opacity="1" fill-rule="nonzero" d=" M241.32 71.75 C241.32,71.75 240.83,73.49 240.5,74.13 C240.18,74.77 238.43,75.72 237.91,78.13 C237.66,79.28 238.12,81.81 238.79,84.29 C239.4,86.55 238.84,88.66 238.22,88.48 C236.64,88.01 235.37,87.37 235.18,86.53 C234.9,85.26 235.26,83.57 235.23,82.58 C235.14,79.6 234.02,78.24 233.48,77.85 C232.44,77.09 230.82,76.61 229.92,78.15 C228.31,80.89 231.62,85.16 231.56,86.68 C231.5,88.21 231.21,93.03 230.96,93.61 C230.81,93.93 230.47,94.12 230.12,94.08 C228.78,93.9 225.66,93.29 226.27,91.4 C228.41,84.8 224.5,77.94 229.08,73.35 C231.25,71.17 240.51,70.24 241.32,71.75z "/><path id="_R_G_L_1_G_G_0_L_0_G_D_9_P_0" fill="#1b1c20" fill-opacity="1" fill-rule="nonzero" d=" M244.3 63.89 C247.55,65.13 249.2,67.39 249.45,70.19 C249.67,72.58 249.04,73.24 248.56,73.44 C246.91,74.14 243.94,74.32 240.5,74.13 C239.23,75.72 232.64,75.55 231.85,75.65 C230.1,75.87 229.06,77.6 228.69,81.21 C228.53,82.82 230.23,90.38 229.82,91.09 C229.45,91.71 229.05,94.06 227.04,93.18 C225.45,92.48 226.72,89.61 224.63,81.39 C222.12,71.51 225.62,65.44 232.26,63.69 C238.89,61.96 242.85,63.33 244.3,63.89z "/><path id="_R_G_L_1_G_G_0_L_0_G_D_10_P_0" fill="#d17343" fill-opacity="1" fill-rule="nonzero" d=" M262.99 174.05 C262.99,174.05 264.91,154.57 264.91,154.57 C264.91,154.57 253.71,153.6 253.49,152.41 C248.7,130.86 253.55,129.81 248.39,113.47 C245.79,105.23 244.22,104.97 236.71,97.31 C232.7,93.23 222.48,98.88 223.04,110.52 C223.79,126.23 229.7,151.62 230.52,159.41 C231.83,171.76 238.57,171.56 244.83,172.98 C250.73,174.31 262.28,174.21 262.99,174.05z "/><path id="_R_G_L_1_G_G_0_L_0_G_D_11_P_0" fill="#d17343" fill-opacity="1" fill-rule="nonzero" d=" M300.03 220.94 C305.87,220.73 307.99,219.08 307.81,217.38 C307.6,215.32 302.63,216.18 294.95,213.38 C293.08,212.69 289.98,212.08 287.38,211.43 C289.89,196.07 296.27,189.15 300,171.58 C300.62,168.66 300.51,162.55 297.87,160.92 C294.41,158.79 293.06,158.08 290.23,157.15 C284.53,155.29 276.97,154.24 248.43,153.27 C248.43,153.27 248.49,173.55 248.49,173.55 C258.11,173.93 276.28,174.38 285.63,172.78 C280.04,181.96 284.83,186.35 278.48,208.06 C276.92,213.42 276.57,214.24 277.11,218.02 C277.72,222.27 280.9,220.94 287.27,220.4 C294.88,219.76 294.19,221.16 300.03,220.94z "/><path id="_R_G_L_1_G_G_0_L_0_G_D_12_P_0" fill="#d8bc98" fill-opacity="1" fill-rule="nonzero" d=" M239.19 173.58 C231.28,172.73 230.54,163.73 230.54,163.73 C230.54,163.73 248.43,153.27 248.43,153.27 C277.3,154.03 284.5,154.67 290.12,156.5 C292.95,157.43 294.81,158.67 298.27,160.8 C300.91,162.43 300.62,168.66 300,171.58 C296.44,188.36 291.54,196.98 288.82,210.97 C285.5,210.3 278.18,211.77 275.12,214.16 C277.65,204.18 280.57,183.92 283.76,173.55 C273.35,174.9 249.52,174.68 239.19,173.58z "/><path id="_R_G_L_1_G_G_0_L_0_G_D_13_P_0" fill="#e2c59a" fill-opacity="1" fill-rule="nonzero" d=" M228.07 97.25 C229.76,97.06 232.25,97.47 233.53,98.11 C235.54,99.12 238.82,99.87 241,100.41 C244.22,103.36 247.9,106.93 250.15,113.78 C253.28,123.26 251.63,128.15 257.15,146.38 C257.47,147.42 258.01,152.2 259.2,153.7 C253.89,153.39 243.79,156.83 236.15,161.78 C232.34,164.25 230.77,166.88 230.33,167.28 C230.18,166.5 228.94,163.2 229.07,159.47 C229.51,147.21 223.5,126.18 222.75,110.47 C222.45,104.21 224.77,99.46 228.07,97.25z "/><path id="_R_G_L_1_G_G_0_L_0_G_D_14_P_0" fill="#d17343" fill-opacity="1" fill-rule="nonzero" d=" M291.98 141.98 C296.64,141.44 298.87,142.27 298.34,136.51 C298.1,133.99 297.18,133.16 295.72,132.73 C292.39,131.75 289.09,131.31 286.94,131.55 C278.87,132.45 268.37,131.74 254.42,132.65 C253.84,132.69 251.38,131.41 251,129.82 C247.33,114.68 239.52,103.86 239.52,103.86 C239.52,103.86 227.8,108.67 227.8,108.67 C235.1,133.64 241.05,133.73 246.39,141.57 C246.8,142.17 251.81,144.09 263.14,142.2 C280.5,139.32 281.06,137.04 286.69,136.32 C289.95,137.23 290.49,136.18 291.11,136.54 C292.08,137.09 292.09,138.78 292.08,138.91 C292.03,140.39 290.21,140.43 290.2,140.44 C290.2,140.44 289.44,142.27 291.98,141.98z "/><path id="_R_G_L_1_G_G_0_L_0_G_D_15_P_0" fill="#e8cca7" fill-opacity="1" fill-rule="nonzero" d=" M251.09 128.57 C251.09,128.57 240.26,134.4 237.76,136.07 C233.7,129.3 228.53,116.01 227.87,113.05 C226.83,108.36 227.66,103.68 231.72,101.91 C235.78,100.14 239.85,102.64 240.68,104.09 C241.51,105.55 249.11,118.68 251.09,128.57z "/><path id="_R_G_L_1_G_G_0_L_0_G_D_16_P_0" fill="#39373a" fill-opacity="1" fill-rule="nonzero" d=" M290.05 211.33 C290.05,211.33 288.89,214.62 285.07,214.83 C281.26,215.04 277.66,215.15 276.28,214.83 C276.28,216.52 276.71,219.28 276.81,219.7 C276.92,220.12 276.92,221.61 276.92,221.61 C276.92,221.61 280.2,221.92 284.33,221.92 C287.4,221.92 289.84,221.39 293.76,221.82 C297.68,222.24 306.25,220.87 307.42,220.65 C308.58,220.44 308.57,219.29 308.47,218.7 C307.95,218.22 308.37,216.74 307.84,216.31 C307.31,215.89 302.76,215.15 299.05,213.98 C295.34,212.82 292.06,211.65 290.05,211.33z "/><path id="_R_G_L_1_G_G_0_L_0_G_D_17_P_0" fill="#d8bc98" fill-opacity="1" fill-rule="nonzero" d=" M227.1 98.44 C227.2,96.82 228.14,94.24 228.14,94.24 C228.14,94.24 230.86,94.24 234.31,94.99 C236.77,95.53 239.95,96.82 240.58,97.15 C241.1,99.3 241.21,102.43 241.21,102.43 C241.21,102.43 238.7,99.84 234.21,98.65 C231,97.81 228.35,97.79 227.1,98.44z "/></g></g></g><g id="_R_G_L_0_G"><g id="_R_G_L_0_G_L_1_G" transform=" translate(349.334, 228.992)"><path id="_R_G_L_0_G_L_1_G_D_0_P_0" fill="#c3c5c8" fill-opacity="1" fill-rule="nonzero" d=" M351.06 222.88 C351.06,222.88 347.84,222.73 347.84,222.73 C347.84,222.73 348.33,212.07 348.33,212.07 C348.33,212.07 351.55,212.21 351.55,212.21 C351.55,212.21 351.06,222.88 351.06,222.88z "/><path id="_R_G_L_0_G_L_1_G_D_1_P_0" fill="#c3c5c8" fill-opacity="1" fill-rule="nonzero" d=" M344.03 225.24 C344.03,225.24 342.9,228.25 342.9,228.25 C342.9,228.25 332.91,224.49 332.91,224.49 C332.91,224.49 334.04,221.48 334.04,221.48 C334.04,221.48 344.03,225.24 344.03,225.24z "/><path id="_R_G_L_0_G_L_1_G_D_2_P_0" fill="#c3c5c8" fill-opacity="1" fill-rule="nonzero" d=" M344.11 232.65 C344.11,232.65 346.62,234.66 346.62,234.66 C346.62,234.66 339.96,243 339.96,243 C339.96,243 337.44,240.99 337.44,240.99 C337.44,240.99 344.11,232.65 344.11,232.65z "/><path id="_R_G_L_0_G_L_1_G_D_3_P_0" fill="#c3c5c8" fill-opacity="1" fill-rule="nonzero" d=" M351.18 234.87 C351.18,234.87 353.87,233.1 353.87,233.1 C353.87,233.1 359.74,242.02 359.74,242.02 C359.74,242.02 357.05,243.79 357.05,243.79 C357.05,243.79 351.18,234.87 351.18,234.87z "/><path id="_R_G_L_0_G_L_1_G_D_4_P_0" fill="#c3c5c8" fill-opacity="1" fill-rule="nonzero" d=" M355.48 228.83 C355.48,228.83 354.63,225.73 354.63,225.73 C354.63,225.73 364.92,222.9 364.92,222.9 C364.92,222.9 365.77,226 365.77,226 C365.77,226 355.48,228.83 355.48,228.83z "/><path id="_R_G_L_0_G_L_1_G_D_5_P_0" fill="#c3c5c8" fill-opacity="1" fill-rule="nonzero" d=" M358.44 229.51 C358.2,234.64 353.86,238.6 348.73,238.36 C343.61,238.13 339.65,233.78 339.89,228.66 C340.12,223.54 344.47,219.57 349.59,219.81 C354.71,220.05 358.67,224.39 358.44,229.51z "/><path id="_R_G_L_0_G_L_1_G_D_6_P_0" fill="#1b1c20" fill-opacity="1" fill-rule="nonzero" d=" M349.33 199.12 C332.84,199.12 319.46,212.49 319.46,228.99 C319.46,245.49 332.84,258.87 349.33,258.87 C365.83,258.87 379.21,245.49 379.21,228.99 C379.21,212.49 365.83,199.12 349.33,199.12z  M349.33 244.14 C340.97,244.14 334.18,237.36 334.18,228.99 C334.18,220.63 340.97,213.84 349.33,213.84 C357.7,213.84 364.48,220.63 364.48,228.99 C364.48,237.36 357.7,244.14 349.33,244.14z "/><path id="_R_G_L_0_G_L_1_G_D_7_P_0" fill="#98989c" fill-opacity="1" fill-rule="nonzero" d=" M349.33 211.11 C339.46,211.11 331.45,219.11 331.45,228.99 C331.45,238.87 339.46,246.88 349.33,246.88 C359.21,246.88 367.22,238.87 367.22,228.99 C367.22,219.11 359.21,211.11 349.33,211.11z  M349.33 243.97 C341.06,243.97 334.36,237.26 334.36,228.99 C334.36,220.72 341.06,214.02 349.33,214.02 C357.61,214.02 364.31,220.72 364.31,228.99 C364.31,237.26 357.61,243.97 349.33,243.97z "/></g><g id="_R_G_L_0_G_L_0_G" transform=" translate(128.713, 229.264)"><path id="_R_G_L_0_G_L_0_G_D_0_P_0" fill="#1b1c20" fill-opacity="1" fill-rule="nonzero" d=" M158.59 229.26 C158.59,245.76 145.21,259.14 128.71,259.14 C112.21,259.14 98.84,245.76 98.84,229.26 C98.84,212.77 112.21,199.39 128.71,199.39 C145.21,199.39 158.59,212.77 158.59,229.26z "/><path id="_R_G_L_0_G_L_0_G_D_1_P_0" fill="#98989c" fill-opacity="1" fill-rule="nonzero" d=" M146.81 229.26 C146.81,239.26 138.7,247.36 128.71,247.36 C118.72,247.36 110.62,239.26 110.62,229.26 C110.62,219.27 118.72,211.17 128.71,211.17 C138.7,211.17 146.81,219.27 146.81,229.26z "/><path id="_R_G_L_0_G_L_0_G_D_2_P_0" fill="#c3c5c8" fill-opacity="1" fill-rule="nonzero" d=" M143.19 229.26 C143.19,237.26 136.71,243.74 128.71,243.74 C120.72,243.74 114.24,237.26 114.24,229.26 C114.24,221.27 120.72,214.79 128.71,214.79 C136.71,214.79 143.19,221.27 143.19,229.26z "/><path id="_R_G_L_0_G_L_0_G_D_3_P_0" fill="#edeeef" fill-opacity="1" fill-rule="nonzero" d=" M138.69 229.26 C138.69,234.77 134.22,239.24 128.71,239.24 C123.2,239.24 118.73,234.77 118.73,229.26 C118.73,223.75 123.2,219.29 128.71,219.29 C134.22,219.29 138.69,223.75 138.69,229.26z "/></g></g></g><g id="time_group"/></svg>